<svg xmlns="http://www.w3.org/2000/svg" width="1024" height="768" viewBox="0 0 1024 768"><title>dummy-map</title><rect width="1024" height="768"/><path d="M466.9258,104.6772H453.3506v-9h36v9H466.9258Zm0,2.25h9v42.6749h-9Z" style="fill:#fff"/><path d="M510.95,140.6021v9H503l-9-9V104.6772l9-9h7.95v9h-4.125L503,108.6519V136.627l3.8252,3.9751ZM530,104.6772v35.9249l-9,9h-7.8v-9h3.9746l3.8252-4.05V108.7271l-3.8252-4.05H513.2v-9H521Z" style="fill:#fff"/><path d="M551.6758,118.1021v9h-7.9512v22.5h-9V95.6772h16.9512v9h-7.9512v13.4249Zm-7.9512,9v0Zm27.001-22.4249v13.35l-9,9.0752h-7.8008v-9h3.9l3.9-3.9751v-5.4751l-3.9-3.9747h-3.9v-9h7.8008l8.85,9Zm0,13.35v0Z" style="fill:#fff"/><path d="M404.3389,658.6016v9h-16.95V613.6777h16.95v9h-7.95v13.4239h7.95v9h-7.95v13.5Zm19.05-35.9239v13.4239l-4.5752,4.5761,4.4258,4.4239h.1494v13.5l-9,9h-7.8v-9h3.9746l3.8252-3.9746v-5.4l-3.9746-4.125h-3.8252v-9h3.9746l3.8252-3.9746v-5.4l-3.8994-4.0489h-3.9v-9h7.8l8.8506,9Z" style="fill:#fff"/><path d="M445.6641,658.6016v9h-7.95l-9-9V622.6777l9-9h7.95v9h-4.125l-3.8252,3.9746V654.627l3.8252,3.9746Zm19.05-35.9239v35.9239l-9,9h-7.8v-9h3.9746l3.8252-4.0489V626.7266l-3.8252-4.0489h-3.9746v-9h7.8Z" style="fill:#fff"/><path d="M483.0137,622.6777H469.4385v-9h36v9H483.0137Zm0,2.25h8.999v42.6739h-8.999Z" style="fill:#fff"/><path d="M523.0625,622.6777H509.4883v-9h36v9H523.0625Zm0,2.25h9v42.6739h-9Z" style="fill:#fff"/><path d="M567.0879,658.6016v9h-7.95l-9-9V622.6777l9-9h7.95v9h-4.125l-3.8252,3.9746V654.627l3.8252,3.9746Zm19.05-35.9239v35.9239l-9,9h-7.8v-9h3.9746l3.8252-4.0489V626.7266l-3.8252-4.0489h-3.9746v-9h7.8Z" style="fill:#fff"/><path d="M613.2871,644.9521l-4.4248,18-8.3252-32.8505v37.5h-8.9248l-.0752-53.9239h13.875Zm14.3252-31.2744h-4.125l-13.4258,53.9239h9l8.5508-34.35v34.35h8.9248V613.6777h-8.9248Z" style="fill:#fff"/><path d="M181.12,405.3184v9h-9V360.394h9Zm27,9H183.37v-9h24.75Z" style="fill:#fff"/><path d="M221.5449,405.3184v9h-9V360.394h9v44.9244Zm2.25-35.9244v-9h24.75v9Zm0,22.4244v-9H235.12v9Zm0,22.5v-9h24.75v9Z" style="fill:#fff"/><path d="M261.9692,414.3184h-9V360.394h9Zm2.25-44.9244v-9h24.75v9Zm0,22.4244v-9h11.3257v9Z" style="fill:#fff"/><path d="M306.3682,369.394H292.7939v-9h36v9H306.3682Zm0,2.25h9v42.6744h-9Z" style="fill:#fff"/><path d="M735.52,382.8188v9H727.57v22.5h-9V360.394H735.52v9H727.57v13.4248Zm10.9512,11.25,8.1,20.25h-9l-8.0254-20.25Zm8.1-24.6744v13.35l-9,9.0747H737.77v-9h3.9l3.9-3.975v-5.4751l-3.9-3.9747h-3.9v-9H745.57l8.85,9Z" style="fill:#fff"/><path d="M768.7441,414.3184h-9V360.394h9Z" style="fill:#fff"/><path d="M791.168,405.3184v9h-7.9492l-9-9V369.394l9-9h7.9492v9h-4.125l-3.8242,3.9747v27.9751l3.8242,3.9746Zm2.25-35.9244v-9h7.8008l9,9v6.6748h-9v-2.625l-3.9-4.05Zm16.8008,20.1744v15.75l-9,9H793.418v-9h3.9l3.9-4.0489v-2.7011H796.793v-9Z" style="fill:#fff"/><path d="M832.1172,382.8188v9H824.168v22.5h-9V360.394h9v22.4248ZM851.168,360.394v53.9244h-9v-22.5h-7.8008v-9h7.8008V360.394Z" style="fill:#fff"/><path d="M869.0918,369.394H855.5176v-9h36v9H869.0918Zm0,2.25h9v42.6744h-9Z" style="fill:#fff"/><circle cx="512" cy="384" r="334" style="fill:none;stroke:#fff;stroke-miterlimit:10;opacity:0.54"/><circle cx="512" cy="384" r="284" style="fill:none;stroke:#fff;stroke-miterlimit:10;opacity:0.54"/><circle cx="512" cy="384" r="234" style="fill:none;stroke:#fff;stroke-miterlimit:10;opacity:0.54"/><circle cx="512" cy="384" r="184" style="fill:none;stroke:#fff;stroke-miterlimit:10;opacity:0.54"/><circle cx="512" cy="384" r="134" style="fill:none;stroke:#fff;stroke-miterlimit:10;opacity:0.54"/><circle cx="512" cy="384" r="84" style="fill:none;stroke:#fff;stroke-miterlimit:10;opacity:0.54"/><g style="opacity:0.54"><path d="M973,51V717H51V51H973m1-1H50V718H974V50Z" style="fill:#fff"/></g><g style="opacity:0.54"><line x1="49.5" y1="50.5" x2="973.5" y2="718.5" style="fill:none;stroke:#fff;stroke-miterlimit:10"/></g><line x1="973.5" y1="50.5" x2="49.5" y2="718.5" style="fill:none;stroke:#fff;stroke-miterlimit:10;opacity:0.54"/></svg>